{"asset":{"generator":"glTF-Transform v4.2.1","version":"2.0"},"accessors":[{"type":"VEC3","componentType":5126,"count":409806,"max":[0.5983136296272278,1.7875370979309082,0.387434184551239],"min":[-0.5978814959526062,0,-0.3992866575717926],"bufferView":0,"byteOffset":0},{"type":"VEC3","componentType":5126,"count":409806,"bufferView":0,"byteOffset":12},{"type":"VEC2","componentType":5126,"count":409806,"bufferView":0,"byteOffset":24},{"type":"VEC4","componentType":5126,"count":409806,"bufferView":0,"byteOffset":32},{"type":"SCALAR","componentType":5125,"count":1499403,"bufferView":1,"byteOffset":0}],"bufferViews":[{"buffer":0,"byteOffset":0,"byteLength":19670688,"byteStride":48,"target":34962},{"buffer":0,"byteOffset":19670688,"byteLength":5997612,"target":34963}],"samplers":[{"magFilter":9729,"minFilter":9987,"wrapS":10497,"wrapT":10497}],"textures":[{"source":0,"sampler":0}],"images":[{"name":"shaded","mimeType":"image/png","uri":"emissive.png"}],"buffers":[{"uri":"monRobot4.bin","byteLength":25668300}],"materials":[{"name":"model","doubleSided":true,"pbrMetallicRoughness":{"baseColorFactor":[0,0,0,1],"metallicFactor":0},"emissiveFactor":[1,1,1],"emissiveTexture":{"index":0}}],"meshes":[{"name":"model","primitives":[{"attributes":{"POSITION":0,"NORMAL":1,"TEXCOORD_0":2,"TANGENT":3},"mode":4,"material":0,"indices":4}]}],"nodes":[{"name":"model","mesh":0}],"scenes":[{"name":"Scene","nodes":[0]}],"scene":0}